<mxfile host="app.diagrams.net" modified="2023-01-03T10:59:51.175Z" agent="5.0 (Windows NT 10.0; Win64; x64) AppleWebKit/537.36 (KHTML, like Gecko) Chrome/108.0.0.0 Safari/537.36 Edg/108.0.1462.54" etag="M1U75aUQL5qPyLKHUD-K" version="20.6.2" type="github">
  <diagram id="C5RBs43oDa-KdzZeNtuy" name="Page-1">
    <mxGraphModel dx="1910" dy="2560" grid="1" gridSize="10" guides="1" tooltips="1" connect="1" arrows="1" fold="1" page="1" pageScale="1" pageWidth="827" pageHeight="1169" math="0" shadow="0">
      <root>
        <mxCell id="WIyWlLk6GJQsqaUBKTNV-0" />
        <mxCell id="WIyWlLk6GJQsqaUBKTNV-1" parent="WIyWlLk6GJQsqaUBKTNV-0" />
        <mxCell id="RG9_XBAm7VZqIcH7kuna-0" value="WORFLOW STORE PROCERDURE COMMUNICATION ACCIAIERIA&amp;nbsp; L2 TO PES" style="rounded=0;whiteSpace=wrap;html=1;" vertex="1" parent="WIyWlLk6GJQsqaUBKTNV-1">
          <mxGeometry x="120" y="10" width="1010" height="60" as="geometry" />
        </mxCell>
        <mxCell id="RG9_XBAm7VZqIcH7kuna-17" value="L2" style="rounded=0;whiteSpace=wrap;html=1;" vertex="1" parent="WIyWlLk6GJQsqaUBKTNV-1">
          <mxGeometry x="130" y="70" width="120" height="60" as="geometry" />
        </mxCell>
        <mxCell id="RG9_XBAm7VZqIcH7kuna-18" value="PLC" style="rounded=0;whiteSpace=wrap;html=1;" vertex="1" parent="WIyWlLk6GJQsqaUBKTNV-1">
          <mxGeometry x="580" y="70" width="120" height="60" as="geometry" />
        </mxCell>
        <mxCell id="RG9_XBAm7VZqIcH7kuna-28" style="edgeStyle=orthogonalEdgeStyle;rounded=0;orthogonalLoop=1;jettySize=auto;html=1;entryX=0;entryY=0.5;entryDx=0;entryDy=0;" edge="1" parent="WIyWlLk6GJQsqaUBKTNV-1" source="RG9_XBAm7VZqIcH7kuna-20" target="RG9_XBAm7VZqIcH7kuna-21">
          <mxGeometry relative="1" as="geometry" />
        </mxCell>
        <mxCell id="RG9_XBAm7VZqIcH7kuna-20" value="L2_To_PES_EventTelegram" style="rounded=0;whiteSpace=wrap;html=1;" vertex="1" parent="WIyWlLk6GJQsqaUBKTNV-1">
          <mxGeometry x="130" y="270" width="180" height="60" as="geometry" />
        </mxCell>
        <mxCell id="RG9_XBAm7VZqIcH7kuna-29" style="edgeStyle=orthogonalEdgeStyle;rounded=0;orthogonalLoop=1;jettySize=auto;html=1;entryX=-0.007;entryY=0.394;entryDx=0;entryDy=0;entryPerimeter=0;" edge="1" parent="WIyWlLk6GJQsqaUBKTNV-1" source="RG9_XBAm7VZqIcH7kuna-21" target="RG9_XBAm7VZqIcH7kuna-24">
          <mxGeometry relative="1" as="geometry" />
        </mxCell>
        <mxCell id="RG9_XBAm7VZqIcH7kuna-21" value="CALL" style="rhombus;whiteSpace=wrap;html=1;" vertex="1" parent="WIyWlLk6GJQsqaUBKTNV-1">
          <mxGeometry x="360" y="260" width="80" height="80" as="geometry" />
        </mxCell>
        <mxCell id="RG9_XBAm7VZqIcH7kuna-24" value="L2_To_PES_UpdateTcqL2Send EXCEPTION&amp;nbsp;&lt;br&gt;L2_To_PES_UpdateTcqL2Send&amp;nbsp;&lt;br&gt;L2_To_PES_SendBucketLoaded02L22PES&lt;br&gt;L2_To_PES_SendCastSeqRepL22PES&lt;br&gt;&amp;nbsp;L2_To_PES_SendChemResult02L22PES&lt;br&gt;L2_To_PES_SendDelayReportL22PES&lt;br&gt;L2_To_PES_SendEquipStateL22PES&lt;br&gt;&amp;nbsp;L2_To_PES_SendGeneralAckL22PES&lt;br&gt;L2_To_PES_SendHeatEventL22PES&lt;br&gt;L2_To_PES_SendHeatLineRep02L22PES&lt;br&gt;L2_To_PES_SendHeatLineStatusL22PES&lt;br&gt;L2_To_PES_SendHeatTgtReqL22PES&lt;br&gt;L2_To_PES_SendLadleContentL22PES&lt;br&gt;L2_To_PES_SendMatAddition02L22PES&lt;br&gt;&amp;nbsp;L2_To_PES_SendMatLocChange02L22PES&lt;br&gt;L2_To_PES_SendMatLocImage02PES2L2&lt;br&gt;&amp;nbsp;L2_To_PES_SendMeasResultL22PES&lt;br&gt;L2_To_PES_SendPingAckL22PES&lt;br&gt;L2_To_PES_SendPingL22PES&lt;br&gt;L2_To_PES_SendRequestMasterDataL22PES&lt;br&gt;L2_To_PES_SendSampleTakenL22PES&lt;br&gt;&amp;nbsp;L2_To_PES_SendStirrResultL22PES" style="rounded=0;whiteSpace=wrap;html=1;" vertex="1" parent="WIyWlLk6GJQsqaUBKTNV-1">
          <mxGeometry x="820" y="170" width="300" height="330" as="geometry" />
        </mxCell>
        <mxCell id="RG9_XBAm7VZqIcH7kuna-34" style="edgeStyle=orthogonalEdgeStyle;rounded=0;orthogonalLoop=1;jettySize=auto;html=1;entryX=0;entryY=0.5;entryDx=0;entryDy=0;" edge="1" parent="WIyWlLk6GJQsqaUBKTNV-1" source="RG9_XBAm7VZqIcH7kuna-26" target="RG9_XBAm7VZqIcH7kuna-32">
          <mxGeometry relative="1" as="geometry" />
        </mxCell>
        <mxCell id="RG9_XBAm7VZqIcH7kuna-26" value="`L2_To_PES_AckMessage`" style="rounded=0;whiteSpace=wrap;html=1;" vertex="1" parent="WIyWlLk6GJQsqaUBKTNV-1">
          <mxGeometry x="130" y="530" width="180" height="60" as="geometry" />
        </mxCell>
        <mxCell id="RG9_XBAm7VZqIcH7kuna-36" style="edgeStyle=orthogonalEdgeStyle;rounded=0;orthogonalLoop=1;jettySize=auto;html=1;entryX=0;entryY=0.5;entryDx=0;entryDy=0;" edge="1" parent="WIyWlLk6GJQsqaUBKTNV-1" source="RG9_XBAm7VZqIcH7kuna-32" target="RG9_XBAm7VZqIcH7kuna-138">
          <mxGeometry relative="1" as="geometry">
            <mxPoint x="570" y="555" as="targetPoint" />
            <Array as="points">
              <mxPoint x="680" y="560" />
              <mxPoint x="680" y="555" />
            </Array>
          </mxGeometry>
        </mxCell>
        <mxCell id="RG9_XBAm7VZqIcH7kuna-32" value="CALL" style="rhombus;whiteSpace=wrap;html=1;" vertex="1" parent="WIyWlLk6GJQsqaUBKTNV-1">
          <mxGeometry x="340" y="520" width="80" height="80" as="geometry" />
        </mxCell>
        <mxCell id="RG9_XBAm7VZqIcH7kuna-37" style="edgeStyle=orthogonalEdgeStyle;rounded=0;orthogonalLoop=1;jettySize=auto;html=1;entryX=0;entryY=0.5;entryDx=0;entryDy=0;" edge="1" parent="WIyWlLk6GJQsqaUBKTNV-1" source="RG9_XBAm7VZqIcH7kuna-38" target="RG9_XBAm7VZqIcH7kuna-40">
          <mxGeometry relative="1" as="geometry" />
        </mxCell>
        <mxCell id="RG9_XBAm7VZqIcH7kuna-38" value="`L2_To_PES_SendBucketLoaded02L22PES`" style="rounded=0;whiteSpace=wrap;html=1;" vertex="1" parent="WIyWlLk6GJQsqaUBKTNV-1">
          <mxGeometry x="130" y="630" width="250" height="60" as="geometry" />
        </mxCell>
        <mxCell id="RG9_XBAm7VZqIcH7kuna-39" style="edgeStyle=orthogonalEdgeStyle;rounded=0;orthogonalLoop=1;jettySize=auto;html=1;" edge="1" parent="WIyWlLk6GJQsqaUBKTNV-1" source="RG9_XBAm7VZqIcH7kuna-40" target="RG9_XBAm7VZqIcH7kuna-139">
          <mxGeometry relative="1" as="geometry">
            <mxPoint x="570" y="660" as="targetPoint" />
          </mxGeometry>
        </mxCell>
        <mxCell id="RG9_XBAm7VZqIcH7kuna-40" value="CALL" style="rhombus;whiteSpace=wrap;html=1;" vertex="1" parent="WIyWlLk6GJQsqaUBKTNV-1">
          <mxGeometry x="420" y="620" width="80" height="80" as="geometry" />
        </mxCell>
        <mxCell id="RG9_XBAm7VZqIcH7kuna-44" style="edgeStyle=orthogonalEdgeStyle;rounded=0;orthogonalLoop=1;jettySize=auto;html=1;entryX=0;entryY=0.5;entryDx=0;entryDy=0;" edge="1" parent="WIyWlLk6GJQsqaUBKTNV-1" source="RG9_XBAm7VZqIcH7kuna-45" target="RG9_XBAm7VZqIcH7kuna-47">
          <mxGeometry relative="1" as="geometry" />
        </mxCell>
        <mxCell id="RG9_XBAm7VZqIcH7kuna-45" value="L2_To_PES_SendDelayReportL22PES" style="rounded=0;whiteSpace=wrap;html=1;" vertex="1" parent="WIyWlLk6GJQsqaUBKTNV-1">
          <mxGeometry x="130" y="730" width="250" height="60" as="geometry" />
        </mxCell>
        <mxCell id="RG9_XBAm7VZqIcH7kuna-46" style="edgeStyle=orthogonalEdgeStyle;rounded=0;orthogonalLoop=1;jettySize=auto;html=1;entryX=0;entryY=0.5;entryDx=0;entryDy=0;" edge="1" parent="WIyWlLk6GJQsqaUBKTNV-1" source="RG9_XBAm7VZqIcH7kuna-47" target="RG9_XBAm7VZqIcH7kuna-140">
          <mxGeometry relative="1" as="geometry">
            <mxPoint x="570" y="760" as="targetPoint" />
          </mxGeometry>
        </mxCell>
        <mxCell id="RG9_XBAm7VZqIcH7kuna-47" value="CALL" style="rhombus;whiteSpace=wrap;html=1;" vertex="1" parent="WIyWlLk6GJQsqaUBKTNV-1">
          <mxGeometry x="420" y="720" width="80" height="80" as="geometry" />
        </mxCell>
        <mxCell id="RG9_XBAm7VZqIcH7kuna-49" style="edgeStyle=orthogonalEdgeStyle;rounded=0;orthogonalLoop=1;jettySize=auto;html=1;entryX=0;entryY=0.5;entryDx=0;entryDy=0;" edge="1" parent="WIyWlLk6GJQsqaUBKTNV-1" source="RG9_XBAm7VZqIcH7kuna-50" target="RG9_XBAm7VZqIcH7kuna-52">
          <mxGeometry relative="1" as="geometry" />
        </mxCell>
        <mxCell id="RG9_XBAm7VZqIcH7kuna-50" value="L2_To_PES_SendEquipStateL22PES" style="rounded=0;whiteSpace=wrap;html=1;" vertex="1" parent="WIyWlLk6GJQsqaUBKTNV-1">
          <mxGeometry x="130" y="830" width="250" height="60" as="geometry" />
        </mxCell>
        <mxCell id="RG9_XBAm7VZqIcH7kuna-51" style="edgeStyle=orthogonalEdgeStyle;rounded=0;orthogonalLoop=1;jettySize=auto;html=1;" edge="1" parent="WIyWlLk6GJQsqaUBKTNV-1" source="RG9_XBAm7VZqIcH7kuna-52" target="RG9_XBAm7VZqIcH7kuna-141">
          <mxGeometry relative="1" as="geometry">
            <mxPoint x="570" y="860" as="targetPoint" />
          </mxGeometry>
        </mxCell>
        <mxCell id="RG9_XBAm7VZqIcH7kuna-52" value="CALL" style="rhombus;whiteSpace=wrap;html=1;" vertex="1" parent="WIyWlLk6GJQsqaUBKTNV-1">
          <mxGeometry x="420" y="820" width="80" height="80" as="geometry" />
        </mxCell>
        <mxCell id="RG9_XBAm7VZqIcH7kuna-54" style="edgeStyle=orthogonalEdgeStyle;rounded=0;orthogonalLoop=1;jettySize=auto;html=1;entryX=0;entryY=0.5;entryDx=0;entryDy=0;" edge="1" parent="WIyWlLk6GJQsqaUBKTNV-1" source="RG9_XBAm7VZqIcH7kuna-55" target="RG9_XBAm7VZqIcH7kuna-57">
          <mxGeometry relative="1" as="geometry" />
        </mxCell>
        <mxCell id="RG9_XBAm7VZqIcH7kuna-55" value="L2_To_PES_SendGeneralAckL22PES" style="rounded=0;whiteSpace=wrap;html=1;" vertex="1" parent="WIyWlLk6GJQsqaUBKTNV-1">
          <mxGeometry x="130" y="940" width="250" height="60" as="geometry" />
        </mxCell>
        <mxCell id="RG9_XBAm7VZqIcH7kuna-56" style="edgeStyle=orthogonalEdgeStyle;rounded=0;orthogonalLoop=1;jettySize=auto;html=1;entryX=0;entryY=0.5;entryDx=0;entryDy=0;" edge="1" parent="WIyWlLk6GJQsqaUBKTNV-1" source="RG9_XBAm7VZqIcH7kuna-57" target="RG9_XBAm7VZqIcH7kuna-142">
          <mxGeometry relative="1" as="geometry">
            <mxPoint x="570" y="970" as="targetPoint" />
          </mxGeometry>
        </mxCell>
        <mxCell id="RG9_XBAm7VZqIcH7kuna-57" value="CALL" style="rhombus;whiteSpace=wrap;html=1;" vertex="1" parent="WIyWlLk6GJQsqaUBKTNV-1">
          <mxGeometry x="420" y="930" width="80" height="80" as="geometry" />
        </mxCell>
        <mxCell id="RG9_XBAm7VZqIcH7kuna-59" style="edgeStyle=orthogonalEdgeStyle;rounded=0;orthogonalLoop=1;jettySize=auto;html=1;entryX=0;entryY=0.5;entryDx=0;entryDy=0;" edge="1" parent="WIyWlLk6GJQsqaUBKTNV-1" source="RG9_XBAm7VZqIcH7kuna-60" target="RG9_XBAm7VZqIcH7kuna-62">
          <mxGeometry relative="1" as="geometry" />
        </mxCell>
        <mxCell id="RG9_XBAm7VZqIcH7kuna-60" value="L2_To_PES_SendHeatEventL22PES" style="rounded=0;whiteSpace=wrap;html=1;" vertex="1" parent="WIyWlLk6GJQsqaUBKTNV-1">
          <mxGeometry x="130" y="1030" width="250" height="60" as="geometry" />
        </mxCell>
        <mxCell id="RG9_XBAm7VZqIcH7kuna-61" style="edgeStyle=orthogonalEdgeStyle;rounded=0;orthogonalLoop=1;jettySize=auto;html=1;entryX=0;entryY=0.5;entryDx=0;entryDy=0;" edge="1" parent="WIyWlLk6GJQsqaUBKTNV-1" source="RG9_XBAm7VZqIcH7kuna-62" target="RG9_XBAm7VZqIcH7kuna-143">
          <mxGeometry relative="1" as="geometry">
            <mxPoint x="570" y="1060" as="targetPoint" />
          </mxGeometry>
        </mxCell>
        <mxCell id="RG9_XBAm7VZqIcH7kuna-62" value="CALL" style="rhombus;whiteSpace=wrap;html=1;" vertex="1" parent="WIyWlLk6GJQsqaUBKTNV-1">
          <mxGeometry x="420" y="1020" width="80" height="80" as="geometry" />
        </mxCell>
        <mxCell id="RG9_XBAm7VZqIcH7kuna-66" style="edgeStyle=orthogonalEdgeStyle;rounded=0;orthogonalLoop=1;jettySize=auto;html=1;entryX=0;entryY=0.5;entryDx=0;entryDy=0;" edge="1" parent="WIyWlLk6GJQsqaUBKTNV-1" source="RG9_XBAm7VZqIcH7kuna-67" target="RG9_XBAm7VZqIcH7kuna-69">
          <mxGeometry relative="1" as="geometry" />
        </mxCell>
        <mxCell id="RG9_XBAm7VZqIcH7kuna-67" value="L2_To_PES_SendHeatLineRep02L22PES" style="rounded=0;whiteSpace=wrap;html=1;" vertex="1" parent="WIyWlLk6GJQsqaUBKTNV-1">
          <mxGeometry x="133" y="1150" width="250" height="60" as="geometry" />
        </mxCell>
        <mxCell id="RG9_XBAm7VZqIcH7kuna-68" style="edgeStyle=orthogonalEdgeStyle;rounded=0;orthogonalLoop=1;jettySize=auto;html=1;" edge="1" parent="WIyWlLk6GJQsqaUBKTNV-1" source="RG9_XBAm7VZqIcH7kuna-69" target="RG9_XBAm7VZqIcH7kuna-144">
          <mxGeometry relative="1" as="geometry">
            <mxPoint x="570" y="1180" as="targetPoint" />
          </mxGeometry>
        </mxCell>
        <mxCell id="RG9_XBAm7VZqIcH7kuna-69" value="CALL" style="rhombus;whiteSpace=wrap;html=1;" vertex="1" parent="WIyWlLk6GJQsqaUBKTNV-1">
          <mxGeometry x="420" y="1140" width="80" height="80" as="geometry" />
        </mxCell>
        <mxCell id="RG9_XBAm7VZqIcH7kuna-72" style="edgeStyle=orthogonalEdgeStyle;rounded=0;orthogonalLoop=1;jettySize=auto;html=1;entryX=0;entryY=0.5;entryDx=0;entryDy=0;" edge="1" parent="WIyWlLk6GJQsqaUBKTNV-1" target="RG9_XBAm7VZqIcH7kuna-75">
          <mxGeometry relative="1" as="geometry">
            <mxPoint x="393" y="1290" as="sourcePoint" />
          </mxGeometry>
        </mxCell>
        <mxCell id="RG9_XBAm7VZqIcH7kuna-74" style="edgeStyle=orthogonalEdgeStyle;rounded=0;orthogonalLoop=1;jettySize=auto;html=1;" edge="1" parent="WIyWlLk6GJQsqaUBKTNV-1" source="RG9_XBAm7VZqIcH7kuna-75" target="RG9_XBAm7VZqIcH7kuna-145">
          <mxGeometry relative="1" as="geometry">
            <mxPoint x="593" y="1290" as="targetPoint" />
          </mxGeometry>
        </mxCell>
        <mxCell id="RG9_XBAm7VZqIcH7kuna-75" value="CALL" style="rhombus;whiteSpace=wrap;html=1;" vertex="1" parent="WIyWlLk6GJQsqaUBKTNV-1">
          <mxGeometry x="430" y="1250" width="80" height="80" as="geometry" />
        </mxCell>
        <mxCell id="RG9_XBAm7VZqIcH7kuna-77" style="edgeStyle=orthogonalEdgeStyle;rounded=0;orthogonalLoop=1;jettySize=auto;html=1;entryX=0;entryY=0.5;entryDx=0;entryDy=0;" edge="1" parent="WIyWlLk6GJQsqaUBKTNV-1" source="RG9_XBAm7VZqIcH7kuna-78" target="RG9_XBAm7VZqIcH7kuna-80">
          <mxGeometry relative="1" as="geometry" />
        </mxCell>
        <mxCell id="RG9_XBAm7VZqIcH7kuna-78" value="L2_To_PES_SendMatAddition02L22PES" style="rounded=0;whiteSpace=wrap;html=1;" vertex="1" parent="WIyWlLk6GJQsqaUBKTNV-1">
          <mxGeometry x="120" y="1370" width="250" height="60" as="geometry" />
        </mxCell>
        <mxCell id="RG9_XBAm7VZqIcH7kuna-79" style="edgeStyle=orthogonalEdgeStyle;rounded=0;orthogonalLoop=1;jettySize=auto;html=1;entryX=0;entryY=0.5;entryDx=0;entryDy=0;" edge="1" parent="WIyWlLk6GJQsqaUBKTNV-1" source="RG9_XBAm7VZqIcH7kuna-80" target="RG9_XBAm7VZqIcH7kuna-146">
          <mxGeometry relative="1" as="geometry">
            <mxPoint x="593" y="1400" as="targetPoint" />
          </mxGeometry>
        </mxCell>
        <mxCell id="RG9_XBAm7VZqIcH7kuna-80" value="CALL" style="rhombus;whiteSpace=wrap;html=1;" vertex="1" parent="WIyWlLk6GJQsqaUBKTNV-1">
          <mxGeometry x="430" y="1360" width="80" height="80" as="geometry" />
        </mxCell>
        <mxCell id="RG9_XBAm7VZqIcH7kuna-82" style="edgeStyle=orthogonalEdgeStyle;rounded=0;orthogonalLoop=1;jettySize=auto;html=1;entryX=0;entryY=0.5;entryDx=0;entryDy=0;" edge="1" parent="WIyWlLk6GJQsqaUBKTNV-1" source="RG9_XBAm7VZqIcH7kuna-83" target="RG9_XBAm7VZqIcH7kuna-85">
          <mxGeometry relative="1" as="geometry" />
        </mxCell>
        <mxCell id="RG9_XBAm7VZqIcH7kuna-83" value="L2_To_PES_SendMeasResultL22PES" style="rounded=0;whiteSpace=wrap;html=1;" vertex="1" parent="WIyWlLk6GJQsqaUBKTNV-1">
          <mxGeometry x="120" y="1500" width="250" height="60" as="geometry" />
        </mxCell>
        <mxCell id="RG9_XBAm7VZqIcH7kuna-84" style="edgeStyle=orthogonalEdgeStyle;rounded=0;orthogonalLoop=1;jettySize=auto;html=1;" edge="1" parent="WIyWlLk6GJQsqaUBKTNV-1" source="RG9_XBAm7VZqIcH7kuna-85" target="RG9_XBAm7VZqIcH7kuna-147">
          <mxGeometry relative="1" as="geometry">
            <mxPoint x="593" y="1530" as="targetPoint" />
          </mxGeometry>
        </mxCell>
        <mxCell id="RG9_XBAm7VZqIcH7kuna-85" value="CALL" style="rhombus;whiteSpace=wrap;html=1;" vertex="1" parent="WIyWlLk6GJQsqaUBKTNV-1">
          <mxGeometry x="430" y="1490" width="80" height="80" as="geometry" />
        </mxCell>
        <mxCell id="RG9_XBAm7VZqIcH7kuna-87" style="edgeStyle=orthogonalEdgeStyle;rounded=0;orthogonalLoop=1;jettySize=auto;html=1;entryX=0;entryY=0.5;entryDx=0;entryDy=0;" edge="1" parent="WIyWlLk6GJQsqaUBKTNV-1" source="RG9_XBAm7VZqIcH7kuna-88" target="RG9_XBAm7VZqIcH7kuna-90">
          <mxGeometry relative="1" as="geometry" />
        </mxCell>
        <mxCell id="RG9_XBAm7VZqIcH7kuna-88" value="L2_To_PES_SendPingAckL22PES" style="rounded=0;whiteSpace=wrap;html=1;" vertex="1" parent="WIyWlLk6GJQsqaUBKTNV-1">
          <mxGeometry x="120" y="1620" width="250" height="60" as="geometry" />
        </mxCell>
        <mxCell id="RG9_XBAm7VZqIcH7kuna-89" style="edgeStyle=orthogonalEdgeStyle;rounded=0;orthogonalLoop=1;jettySize=auto;html=1;entryX=0;entryY=0.5;entryDx=0;entryDy=0;" edge="1" parent="WIyWlLk6GJQsqaUBKTNV-1" source="RG9_XBAm7VZqIcH7kuna-90" target="RG9_XBAm7VZqIcH7kuna-91">
          <mxGeometry relative="1" as="geometry" />
        </mxCell>
        <mxCell id="RG9_XBAm7VZqIcH7kuna-90" value="CALL" style="rhombus;whiteSpace=wrap;html=1;" vertex="1" parent="WIyWlLk6GJQsqaUBKTNV-1">
          <mxGeometry x="440" y="1610" width="80" height="80" as="geometry" />
        </mxCell>
        <mxCell id="RG9_XBAm7VZqIcH7kuna-91" value="`L2_To_PES_InsertTcqPmsRecieve ` EXCEPTION&lt;br&gt;L2_To_PES_InsertTcqPmsRecieve" style="rounded=0;whiteSpace=wrap;html=1;" vertex="1" parent="WIyWlLk6GJQsqaUBKTNV-1">
          <mxGeometry x="770" y="1620" width="360" height="60" as="geometry" />
        </mxCell>
        <mxCell id="RG9_XBAm7VZqIcH7kuna-92" style="edgeStyle=orthogonalEdgeStyle;rounded=0;orthogonalLoop=1;jettySize=auto;html=1;entryX=0;entryY=0.5;entryDx=0;entryDy=0;" edge="1" parent="WIyWlLk6GJQsqaUBKTNV-1" source="RG9_XBAm7VZqIcH7kuna-93" target="RG9_XBAm7VZqIcH7kuna-95">
          <mxGeometry relative="1" as="geometry" />
        </mxCell>
        <mxCell id="RG9_XBAm7VZqIcH7kuna-93" value="L2_To_PES_SendPingL22PES" style="rounded=0;whiteSpace=wrap;html=1;" vertex="1" parent="WIyWlLk6GJQsqaUBKTNV-1">
          <mxGeometry x="120" y="1750" width="250" height="60" as="geometry" />
        </mxCell>
        <mxCell id="RG9_XBAm7VZqIcH7kuna-94" style="edgeStyle=orthogonalEdgeStyle;rounded=0;orthogonalLoop=1;jettySize=auto;html=1;entryX=0;entryY=0.5;entryDx=0;entryDy=0;" edge="1" parent="WIyWlLk6GJQsqaUBKTNV-1" source="RG9_XBAm7VZqIcH7kuna-95" target="RG9_XBAm7VZqIcH7kuna-96">
          <mxGeometry relative="1" as="geometry" />
        </mxCell>
        <mxCell id="RG9_XBAm7VZqIcH7kuna-95" value="CALL" style="rhombus;whiteSpace=wrap;html=1;" vertex="1" parent="WIyWlLk6GJQsqaUBKTNV-1">
          <mxGeometry x="417" y="1740" width="80" height="80" as="geometry" />
        </mxCell>
        <mxCell id="RG9_XBAm7VZqIcH7kuna-96" value="`L2_To_PES_InsertTcqPmsRecieve ` EXCEPTION&lt;br&gt;L2_To_PES_InsertTcqPmsRecieve" style="rounded=0;whiteSpace=wrap;html=1;" vertex="1" parent="WIyWlLk6GJQsqaUBKTNV-1">
          <mxGeometry x="770" y="1750" width="360" height="60" as="geometry" />
        </mxCell>
        <mxCell id="RG9_XBAm7VZqIcH7kuna-97" style="edgeStyle=orthogonalEdgeStyle;rounded=0;orthogonalLoop=1;jettySize=auto;html=1;entryX=0;entryY=0.5;entryDx=0;entryDy=0;" edge="1" parent="WIyWlLk6GJQsqaUBKTNV-1" source="RG9_XBAm7VZqIcH7kuna-98" target="RG9_XBAm7VZqIcH7kuna-100">
          <mxGeometry relative="1" as="geometry" />
        </mxCell>
        <mxCell id="RG9_XBAm7VZqIcH7kuna-98" value="L2_To_PES_SendRequestMasterDataL22PES" style="rounded=0;whiteSpace=wrap;html=1;" vertex="1" parent="WIyWlLk6GJQsqaUBKTNV-1">
          <mxGeometry x="120" y="1870" width="250" height="60" as="geometry" />
        </mxCell>
        <mxCell id="RG9_XBAm7VZqIcH7kuna-99" style="edgeStyle=orthogonalEdgeStyle;rounded=0;orthogonalLoop=1;jettySize=auto;html=1;entryX=0;entryY=0.5;entryDx=0;entryDy=0;" edge="1" parent="WIyWlLk6GJQsqaUBKTNV-1" source="RG9_XBAm7VZqIcH7kuna-100" target="RG9_XBAm7VZqIcH7kuna-101">
          <mxGeometry relative="1" as="geometry" />
        </mxCell>
        <mxCell id="RG9_XBAm7VZqIcH7kuna-100" value="CALL" style="rhombus;whiteSpace=wrap;html=1;" vertex="1" parent="WIyWlLk6GJQsqaUBKTNV-1">
          <mxGeometry x="417" y="1860" width="80" height="80" as="geometry" />
        </mxCell>
        <mxCell id="RG9_XBAm7VZqIcH7kuna-101" value="`L2_To_PES_InsertTcqPmsRecieve ` EXCEPTION&lt;br&gt;L2_To_PES_InsertTcqPmsRecieve" style="rounded=0;whiteSpace=wrap;html=1;" vertex="1" parent="WIyWlLk6GJQsqaUBKTNV-1">
          <mxGeometry x="770" y="1870" width="360" height="60" as="geometry" />
        </mxCell>
        <mxCell id="RG9_XBAm7VZqIcH7kuna-102" style="edgeStyle=orthogonalEdgeStyle;rounded=0;orthogonalLoop=1;jettySize=auto;html=1;entryX=0;entryY=0.5;entryDx=0;entryDy=0;" edge="1" parent="WIyWlLk6GJQsqaUBKTNV-1" source="RG9_XBAm7VZqIcH7kuna-103" target="RG9_XBAm7VZqIcH7kuna-105">
          <mxGeometry relative="1" as="geometry" />
        </mxCell>
        <mxCell id="RG9_XBAm7VZqIcH7kuna-103" value="L2_To_PES_SendStirrResultL22PES" style="rounded=0;whiteSpace=wrap;html=1;" vertex="1" parent="WIyWlLk6GJQsqaUBKTNV-1">
          <mxGeometry x="120" y="1980" width="250" height="60" as="geometry" />
        </mxCell>
        <mxCell id="RG9_XBAm7VZqIcH7kuna-104" style="edgeStyle=orthogonalEdgeStyle;rounded=0;orthogonalLoop=1;jettySize=auto;html=1;entryX=0;entryY=0.5;entryDx=0;entryDy=0;" edge="1" parent="WIyWlLk6GJQsqaUBKTNV-1" source="RG9_XBAm7VZqIcH7kuna-105" target="RG9_XBAm7VZqIcH7kuna-106">
          <mxGeometry relative="1" as="geometry" />
        </mxCell>
        <mxCell id="RG9_XBAm7VZqIcH7kuna-105" value="CALL" style="rhombus;whiteSpace=wrap;html=1;" vertex="1" parent="WIyWlLk6GJQsqaUBKTNV-1">
          <mxGeometry x="420" y="1970" width="80" height="80" as="geometry" />
        </mxCell>
        <mxCell id="RG9_XBAm7VZqIcH7kuna-106" value="`L2_To_PES_InsertTcqPmsRecieve ` EXCEPTION&lt;br&gt;L2_To_PES_InsertTcqPmsRecieve" style="rounded=0;whiteSpace=wrap;html=1;" vertex="1" parent="WIyWlLk6GJQsqaUBKTNV-1">
          <mxGeometry x="770" y="1980" width="360" height="60" as="geometry" />
        </mxCell>
        <mxCell id="RG9_XBAm7VZqIcH7kuna-107" value="g" style="edgeStyle=orthogonalEdgeStyle;rounded=0;orthogonalLoop=1;jettySize=auto;html=1;entryX=1;entryY=0.5;entryDx=0;entryDy=0;" edge="1" parent="WIyWlLk6GJQsqaUBKTNV-1" source="RG9_XBAm7VZqIcH7kuna-112" target="RG9_XBAm7VZqIcH7kuna-108">
          <mxGeometry relative="1" as="geometry">
            <mxPoint x="420" y="2119.9999999999995" as="targetPoint" />
          </mxGeometry>
        </mxCell>
        <mxCell id="RG9_XBAm7VZqIcH7kuna-108" value="L2_To_PES_UpdateTcqL2Send" style="rounded=0;whiteSpace=wrap;html=1;" vertex="1" parent="WIyWlLk6GJQsqaUBKTNV-1">
          <mxGeometry x="120" y="2090" width="250" height="60" as="geometry" />
        </mxCell>
        <mxCell id="RG9_XBAm7VZqIcH7kuna-112" value="end&amp;nbsp;" style="ellipse;shape=doubleEllipse;whiteSpace=wrap;html=1;" vertex="1" parent="WIyWlLk6GJQsqaUBKTNV-1">
          <mxGeometry x="1030" y="2090" width="100" height="60" as="geometry" />
        </mxCell>
        <mxCell id="RG9_XBAm7VZqIcH7kuna-113" value="g" style="edgeStyle=orthogonalEdgeStyle;rounded=0;orthogonalLoop=1;jettySize=auto;html=1;" edge="1" parent="WIyWlLk6GJQsqaUBKTNV-1" source="RG9_XBAm7VZqIcH7kuna-114">
          <mxGeometry relative="1" as="geometry">
            <mxPoint x="1010" y="2210" as="targetPoint" />
          </mxGeometry>
        </mxCell>
        <mxCell id="RG9_XBAm7VZqIcH7kuna-114" value="L2_To_PES_InsertTcqPmsRecieve" style="rounded=0;whiteSpace=wrap;html=1;" vertex="1" parent="WIyWlLk6GJQsqaUBKTNV-1">
          <mxGeometry x="120" y="2180" width="250" height="60" as="geometry" />
        </mxCell>
        <mxCell id="RG9_XBAm7VZqIcH7kuna-115" value="end&amp;nbsp;" style="ellipse;shape=doubleEllipse;whiteSpace=wrap;html=1;" vertex="1" parent="WIyWlLk6GJQsqaUBKTNV-1">
          <mxGeometry x="1030" y="2180" width="100" height="60" as="geometry" />
        </mxCell>
        <mxCell id="RG9_XBAm7VZqIcH7kuna-116" style="edgeStyle=orthogonalEdgeStyle;rounded=0;orthogonalLoop=1;jettySize=auto;html=1;exitX=0.5;exitY=1;exitDx=0;exitDy=0;" edge="1" parent="WIyWlLk6GJQsqaUBKTNV-1">
          <mxGeometry relative="1" as="geometry">
            <mxPoint x="665" y="585" as="sourcePoint" />
            <mxPoint x="665" y="585" as="targetPoint" />
          </mxGeometry>
        </mxCell>
        <mxCell id="RG9_XBAm7VZqIcH7kuna-121" value="L2_To_PES_EventTelegram" style="rounded=0;whiteSpace=wrap;html=1;" vertex="1" parent="WIyWlLk6GJQsqaUBKTNV-1">
          <mxGeometry x="120" y="270" width="180" height="60" as="geometry" />
        </mxCell>
        <mxCell id="RG9_XBAm7VZqIcH7kuna-130" value="L2_To_PES_SendHeatTgtReqL22PES" style="rounded=0;whiteSpace=wrap;html=1;" vertex="1" parent="WIyWlLk6GJQsqaUBKTNV-1">
          <mxGeometry x="120" y="1260" width="250" height="60" as="geometry" />
        </mxCell>
        <mxCell id="RG9_XBAm7VZqIcH7kuna-135" value="L3" style="rounded=0;whiteSpace=wrap;html=1;" vertex="1" parent="WIyWlLk6GJQsqaUBKTNV-1">
          <mxGeometry x="1010" y="70" width="120" height="60" as="geometry" />
        </mxCell>
        <mxCell id="RG9_XBAm7VZqIcH7kuna-136" value="WORFLOW STORE PROCERDURE COMMUNICATION ACCIAIERIA&amp;nbsp; L2 TO PES" style="rounded=0;whiteSpace=wrap;html=1;" vertex="1" parent="WIyWlLk6GJQsqaUBKTNV-1">
          <mxGeometry x="120" y="10" width="1010" height="60" as="geometry" />
        </mxCell>
        <mxCell id="RG9_XBAm7VZqIcH7kuna-138" value="`L2_To_PES_InsertTcqL2Send`&lt;br&gt;L2_To_PES_InsertTcqL2Send" style="rounded=0;whiteSpace=wrap;html=1;" vertex="1" parent="WIyWlLk6GJQsqaUBKTNV-1">
          <mxGeometry x="940" y="525" width="190" height="60" as="geometry" />
        </mxCell>
        <mxCell id="RG9_XBAm7VZqIcH7kuna-139" value="`L2_To_PES_InsertTcqPmsRecieve ` EXCEPTION&lt;br&gt;L2_To_PES_InsertTcqPmsRecieve&lt;br&gt;&amp;nbsp;SP_Workflow" style="rounded=0;whiteSpace=wrap;html=1;" vertex="1" parent="WIyWlLk6GJQsqaUBKTNV-1">
          <mxGeometry x="770" y="630" width="360" height="60" as="geometry" />
        </mxCell>
        <mxCell id="RG9_XBAm7VZqIcH7kuna-140" value="`L2_To_PES_InsertTcqPmsRecieve ` EXCEPTION&lt;br&gt;L2_To_PES_InsertTcqPmsRecieve&lt;br&gt;&amp;nbsp;SP_Workflow" style="rounded=0;whiteSpace=wrap;html=1;" vertex="1" parent="WIyWlLk6GJQsqaUBKTNV-1">
          <mxGeometry x="770" y="730" width="360" height="60" as="geometry" />
        </mxCell>
        <mxCell id="RG9_XBAm7VZqIcH7kuna-141" value="`L2_To_PES_InsertTcqPmsRecieve ` EXCEPTION&lt;br&gt;L2_To_PES_InsertTcqPmsRecieve&lt;br&gt;&amp;nbsp;SP_Workflow" style="rounded=0;whiteSpace=wrap;html=1;" vertex="1" parent="WIyWlLk6GJQsqaUBKTNV-1">
          <mxGeometry x="770" y="830" width="360" height="60" as="geometry" />
        </mxCell>
        <mxCell id="RG9_XBAm7VZqIcH7kuna-142" value="`L2_To_PES_InsertTcqPmsRecieve ` EXCEPTION&lt;br&gt;L2_To_PES_InsertTcqPmsRecieve&lt;br&gt;" style="rounded=0;whiteSpace=wrap;html=1;" vertex="1" parent="WIyWlLk6GJQsqaUBKTNV-1">
          <mxGeometry x="770" y="940" width="360" height="60" as="geometry" />
        </mxCell>
        <mxCell id="RG9_XBAm7VZqIcH7kuna-143" value="`L2_To_PES_InsertTcqPmsRecieve ` EXCEPTION&lt;br&gt;L2_To_PES_InsertTcqPmsRecieve&lt;br&gt;SP_Workflow" style="rounded=0;whiteSpace=wrap;html=1;" vertex="1" parent="WIyWlLk6GJQsqaUBKTNV-1">
          <mxGeometry x="770" y="1030" width="360" height="60" as="geometry" />
        </mxCell>
        <mxCell id="RG9_XBAm7VZqIcH7kuna-144" value="`L2_To_PES_InsertTcqPmsRecieve ` EXCEPTION&lt;br&gt;L2_To_PES_InsertTcqPmsRecieve&lt;br&gt;SP_Workflow" style="rounded=0;whiteSpace=wrap;html=1;" vertex="1" parent="WIyWlLk6GJQsqaUBKTNV-1">
          <mxGeometry x="770" y="1150" width="360" height="60" as="geometry" />
        </mxCell>
        <mxCell id="RG9_XBAm7VZqIcH7kuna-145" value="`L2_To_PES_InsertTcqPmsRecieve ` EXCEPTION&lt;br&gt;L2_To_PES_InsertTcqPmsRecieve" style="rounded=0;whiteSpace=wrap;html=1;" vertex="1" parent="WIyWlLk6GJQsqaUBKTNV-1">
          <mxGeometry x="770" y="1260" width="360" height="60" as="geometry" />
        </mxCell>
        <mxCell id="RG9_XBAm7VZqIcH7kuna-146" value="`L2_To_PES_InsertTcqPmsRecieve ` EXCEPTION&lt;br&gt;L2_To_PES_InsertTcqPmsRecieve" style="rounded=0;whiteSpace=wrap;html=1;" vertex="1" parent="WIyWlLk6GJQsqaUBKTNV-1">
          <mxGeometry x="770" y="1370" width="360" height="60" as="geometry" />
        </mxCell>
        <mxCell id="RG9_XBAm7VZqIcH7kuna-147" value="`L2_To_PES_InsertTcqPmsRecieve ` EXCEPTION&lt;br&gt;L2_To_PES_InsertTcqPmsRecieve" style="rounded=0;whiteSpace=wrap;html=1;" vertex="1" parent="WIyWlLk6GJQsqaUBKTNV-1">
          <mxGeometry x="770" y="1500" width="360" height="60" as="geometry" />
        </mxCell>
      </root>
    </mxGraphModel>
  </diagram>
</mxfile>
